<svg width="740" height="663" viewBox="0 0 740 663" fill="none" xmlns="http://www.w3.org/2000/svg">
<rect x="29" y="23" width="492" height="477" rx="20" fill="#F2F2F2"/>
<mask id="mask0_1_4" style="mask-type:alpha" maskUnits="userSpaceOnUse" x="29" y="23" width="492" height="477">
<rect x="29" y="23" width="492" height="477" rx="20" fill="#09BC4D" fill-opacity="0.2"/>
</mask>
<g mask="url(#mask0_1_4)">
<path d="M531 514.5H463.5C488 514.5 416.5 207.5 343.5 181.5C285.1 160.7 211.833 59.8333 182.5 12H63C96 62.5 245 225 288.5 253C323.3 275.4 379 436.667 402.5 514.5H330C309.667 446.333 257.2 303.4 210 277C162.8 250.6 60 119.333 14.5 57C14.5 79.5 14.5 127.3 14.5 138.5C14.5 152.5 123.5 303 163.5 337.5C195.5 365.1 240.5 467 259 514.5H182.5C188.1 489.7 58.8333 282.167 -6.5 181.5L-12 341M531 514.5C532.5 430.667 517.9 246.7 447.5 181.5C359.5 100 288.5 59 288.5 12H402.5C417.667 39.6667 456.3 97.1 489.5 105.5C522.7 113.9 543.667 159.667 550 181.5L531 514.5ZM-12 341C29.6667 381.667 114.2 473.3 119 514.5H33.5L-12 341Z" stroke="#95CDDC" stroke-width="3"/>
</g>
<g filter="url(#filter0_d_1_4)">
<path d="M95 105C95 99.4772 99.4772 95 105 95H340C345.523 95 350 99.4772 350 105V310C350 315.523 345.523 320 340 320H105C99.4772 320 95 315.523 95 310V105Z" fill="white"/>
</g>
<circle cx="222" cy="183" r="37" fill="#45B871"/>
<path d="M225.393 194H220.866V181.607L220.91 179.571L220.983 177.345C220.231 178.097 219.709 178.59 219.416 178.824L216.955 180.802L214.772 178.077L221.672 172.584H225.393V194Z" fill="white"/>
<path d="M129.143 250.527C127.265 250.527 125.788 251.193 124.713 252.523C123.637 253.854 123.1 255.691 123.1 258.033C123.1 260.485 123.615 262.34 124.645 263.598C125.684 264.855 127.183 265.484 129.143 265.484C129.99 265.484 130.811 265.402 131.604 265.238C132.396 265.065 133.221 264.846 134.078 264.582V267.385C132.51 267.977 130.733 268.273 128.746 268.273C125.82 268.273 123.574 267.389 122.006 265.621C120.438 263.844 119.654 261.305 119.654 258.006C119.654 255.928 120.033 254.109 120.789 252.551C121.555 250.992 122.658 249.798 124.098 248.969C125.538 248.139 127.229 247.725 129.17 247.725C131.212 247.725 133.098 248.153 134.83 249.01L133.654 251.73C132.98 251.411 132.264 251.133 131.508 250.896C130.76 250.65 129.972 250.527 129.143 250.527ZM145.713 252.605C146.36 252.605 146.893 252.651 147.312 252.742L146.998 255.736C146.542 255.627 146.068 255.572 145.576 255.572C144.291 255.572 143.247 255.992 142.445 256.83C141.652 257.669 141.256 258.758 141.256 260.098V268H138.043V252.879H140.559L140.982 255.545H141.146C141.648 254.643 142.299 253.927 143.102 253.398C143.913 252.87 144.783 252.605 145.713 252.605ZM156.732 268.273C154.381 268.273 152.54 267.59 151.209 266.223C149.887 264.846 149.227 262.955 149.227 260.549C149.227 258.079 149.842 256.137 151.072 254.725C152.303 253.312 153.993 252.605 156.145 252.605C158.141 252.605 159.717 253.212 160.875 254.424C162.033 255.636 162.611 257.304 162.611 259.428V261.164H152.535C152.581 262.632 152.977 263.762 153.725 264.555C154.472 265.339 155.525 265.73 156.883 265.73C157.776 265.73 158.605 265.648 159.371 265.484C160.146 265.311 160.975 265.029 161.859 264.637V267.248C161.076 267.622 160.283 267.886 159.48 268.041C158.678 268.196 157.762 268.273 156.732 268.273ZM156.145 255.039C155.124 255.039 154.303 255.363 153.684 256.01C153.073 256.657 152.708 257.6 152.59 258.84H159.453C159.435 257.591 159.134 256.648 158.551 256.01C157.967 255.363 157.165 255.039 156.145 255.039ZM175.723 268L175.08 265.895H174.971C174.242 266.815 173.508 267.444 172.77 267.781C172.031 268.109 171.083 268.273 169.926 268.273C168.44 268.273 167.278 267.872 166.439 267.07C165.61 266.268 165.195 265.133 165.195 263.666C165.195 262.107 165.774 260.932 166.932 260.139C168.089 259.346 169.853 258.913 172.223 258.84L174.834 258.758V257.951C174.834 256.985 174.606 256.265 174.15 255.791C173.704 255.308 173.007 255.066 172.059 255.066C171.284 255.066 170.541 255.18 169.83 255.408C169.119 255.636 168.436 255.905 167.779 256.215L166.74 253.918C167.561 253.49 168.458 253.166 169.434 252.947C170.409 252.719 171.329 252.605 172.195 252.605C174.118 252.605 175.568 253.025 176.543 253.863C177.527 254.702 178.02 256.019 178.02 257.814V268H175.723ZM170.938 265.812C172.104 265.812 173.038 265.489 173.74 264.842C174.451 264.186 174.807 263.27 174.807 262.094V260.781L172.865 260.863C171.352 260.918 170.249 261.173 169.557 261.629C168.873 262.076 168.531 262.764 168.531 263.693C168.531 264.368 168.732 264.892 169.133 265.266C169.534 265.63 170.135 265.812 170.938 265.812ZM188.137 265.676C188.921 265.676 189.704 265.553 190.488 265.307V267.727C190.133 267.882 189.673 268.009 189.107 268.109C188.551 268.219 187.973 268.273 187.371 268.273C184.327 268.273 182.805 266.669 182.805 263.461V255.312H180.74V253.891L182.955 252.715L184.049 249.516H186.031V252.879H190.338V255.312H186.031V263.406C186.031 264.181 186.223 264.755 186.605 265.129C186.997 265.493 187.508 265.676 188.137 265.676ZM200.127 268.273C197.775 268.273 195.934 267.59 194.604 266.223C193.282 264.846 192.621 262.955 192.621 260.549C192.621 258.079 193.236 256.137 194.467 254.725C195.697 253.312 197.388 252.605 199.539 252.605C201.535 252.605 203.112 253.212 204.27 254.424C205.427 255.636 206.006 257.304 206.006 259.428V261.164H195.93C195.975 262.632 196.372 263.762 197.119 264.555C197.867 265.339 198.919 265.73 200.277 265.73C201.171 265.73 202 265.648 202.766 265.484C203.54 265.311 204.37 265.029 205.254 264.637V267.248C204.47 267.622 203.677 267.886 202.875 268.041C202.073 268.196 201.157 268.273 200.127 268.273ZM199.539 255.039C198.518 255.039 197.698 255.363 197.078 256.01C196.467 256.657 196.103 257.6 195.984 258.84H202.848C202.829 257.591 202.529 256.648 201.945 256.01C201.362 255.363 200.56 255.039 199.539 255.039ZM229.672 268L227.676 262.449H220.033L218.078 268H214.633L222.111 247.93H225.666L233.145 268H229.672ZM226.814 259.633L224.941 254.191C224.805 253.827 224.613 253.253 224.367 252.469C224.13 251.685 223.966 251.111 223.875 250.746C223.629 251.867 223.269 253.093 222.795 254.424L220.99 259.633H226.814ZM241.539 268.273C239.251 268.273 237.51 267.608 236.316 266.277C235.132 264.938 234.539 263.019 234.539 260.521C234.539 257.979 235.159 256.023 236.398 254.656C237.647 253.289 239.447 252.605 241.799 252.605C243.394 252.605 244.829 252.902 246.105 253.494L245.135 256.078C243.777 255.549 242.656 255.285 241.771 255.285C239.156 255.285 237.848 257.021 237.848 260.494C237.848 262.189 238.171 263.465 238.818 264.322C239.475 265.17 240.432 265.594 241.689 265.594C243.12 265.594 244.474 265.238 245.75 264.527V267.33C245.176 267.667 244.561 267.909 243.904 268.055C243.257 268.201 242.469 268.273 241.539 268.273ZM255.402 268.273C253.115 268.273 251.374 267.608 250.18 266.277C248.995 264.938 248.402 263.019 248.402 260.521C248.402 257.979 249.022 256.023 250.262 254.656C251.51 253.289 253.311 252.605 255.662 252.605C257.257 252.605 258.693 252.902 259.969 253.494L258.998 256.078C257.64 255.549 256.519 255.285 255.635 255.285C253.019 255.285 251.711 257.021 251.711 260.494C251.711 262.189 252.035 263.465 252.682 264.322C253.338 265.17 254.295 265.594 255.553 265.594C256.984 265.594 258.337 265.238 259.613 264.527V267.33C259.039 267.667 258.424 267.909 257.768 268.055C257.12 268.201 256.332 268.273 255.402 268.273ZM276.58 260.412C276.58 262.882 275.947 264.81 274.68 266.195C273.413 267.581 271.649 268.273 269.389 268.273C267.976 268.273 266.727 267.954 265.643 267.316C264.558 266.678 263.724 265.762 263.141 264.568C262.557 263.374 262.266 261.989 262.266 260.412C262.266 257.96 262.895 256.046 264.152 254.67C265.41 253.294 267.183 252.605 269.471 252.605C271.658 252.605 273.39 253.312 274.666 254.725C275.942 256.128 276.58 258.024 276.58 260.412ZM265.574 260.412C265.574 263.903 266.864 265.648 269.443 265.648C271.995 265.648 273.271 263.903 273.271 260.412C273.271 256.958 271.986 255.23 269.416 255.23C268.067 255.23 267.087 255.677 266.477 256.57C265.875 257.464 265.574 258.744 265.574 260.412ZM290.949 268L290.498 266.018H290.334C289.887 266.719 289.249 267.271 288.42 267.672C287.6 268.073 286.661 268.273 285.604 268.273C283.771 268.273 282.404 267.818 281.502 266.906C280.6 265.995 280.148 264.614 280.148 262.764V252.879H283.389V262.203C283.389 263.361 283.626 264.231 284.1 264.814C284.574 265.389 285.316 265.676 286.328 265.676C287.677 265.676 288.666 265.275 289.295 264.473C289.933 263.661 290.252 262.308 290.252 260.412V252.879H293.479V268H290.949ZM311.361 268H308.135V258.703C308.135 257.536 307.898 256.666 307.424 256.092C306.959 255.518 306.216 255.23 305.195 255.23C303.837 255.23 302.844 255.632 302.215 256.434C301.586 257.236 301.271 258.58 301.271 260.467V268H298.059V252.879H300.574L301.025 254.861H301.189C301.645 254.141 302.292 253.585 303.131 253.193C303.969 252.801 304.899 252.605 305.92 252.605C309.548 252.605 311.361 254.451 311.361 258.143V268ZM321.465 265.676C322.249 265.676 323.033 265.553 323.816 265.307V267.727C323.461 267.882 323.001 268.009 322.436 268.109C321.88 268.219 321.301 268.273 320.699 268.273C317.655 268.273 316.133 266.669 316.133 263.461V255.312H314.068V253.891L316.283 252.715L317.377 249.516H319.359V252.879H323.666V255.312H319.359V263.406C319.359 264.181 319.551 264.755 319.934 265.129C320.326 265.493 320.836 265.676 321.465 265.676Z" fill="#242323"/>
<g filter="url(#filter1_d_1_4)">
<path d="M380 390C380 384.477 384.477 380 390 380H625C630.523 380 635 384.477 635 390V595C635 600.523 630.523 605 625 605H390C384.477 605 380 600.523 380 595V390Z" fill="#45B871"/>
</g>
<circle cx="501" cy="468" r="37" fill="white"/>
<path d="M507.655 474.562H505.077V479H500.653V474.562H491.513V471.412L500.902 457.584H505.077V471.046H507.655V474.562ZM500.653 471.046V467.413C500.653 466.808 500.678 465.929 500.727 464.776C500.775 463.624 500.814 462.955 500.844 462.77H500.727C500.365 463.57 499.931 464.352 499.423 465.113L495.497 471.046H500.653Z" fill="#242323"/>
<path d="M438.814 542.158H446.17V552.193C444.967 552.585 443.809 552.863 442.697 553.027C441.594 553.191 440.4 553.273 439.115 553.273C436.089 553.273 433.756 552.38 432.115 550.594C430.475 548.798 429.654 546.269 429.654 543.006C429.654 539.788 430.579 537.273 432.43 535.459C434.28 533.636 436.827 532.725 440.072 532.725C442.16 532.725 444.137 533.126 446.006 533.928L444.857 536.648C443.235 535.901 441.613 535.527 439.99 535.527C437.857 535.527 436.171 536.197 434.932 537.537C433.692 538.877 433.072 540.709 433.072 543.033C433.072 545.476 433.628 547.335 434.74 548.611C435.861 549.878 437.47 550.512 439.566 550.512C440.624 550.512 441.754 550.38 442.957 550.115V544.961H438.814V542.158ZM457.244 553.273C454.893 553.273 453.051 552.59 451.721 551.223C450.399 549.846 449.738 547.955 449.738 545.549C449.738 543.079 450.354 541.137 451.584 539.725C452.814 538.312 454.505 537.605 456.656 537.605C458.652 537.605 460.229 538.212 461.387 539.424C462.544 540.636 463.123 542.304 463.123 544.428V546.164H453.047C453.092 547.632 453.489 548.762 454.236 549.555C454.984 550.339 456.036 550.73 457.395 550.73C458.288 550.73 459.117 550.648 459.883 550.484C460.658 550.311 461.487 550.029 462.371 549.637V552.248C461.587 552.622 460.794 552.886 459.992 553.041C459.19 553.196 458.274 553.273 457.244 553.273ZM456.656 540.039C455.635 540.039 454.815 540.363 454.195 541.01C453.585 541.657 453.22 542.6 453.102 543.84H459.965C459.947 542.591 459.646 541.648 459.062 541.01C458.479 540.363 457.677 540.039 456.656 540.039ZM472.406 550.676C473.19 550.676 473.974 550.553 474.758 550.307V552.727C474.402 552.882 473.942 553.009 473.377 553.109C472.821 553.219 472.242 553.273 471.641 553.273C468.596 553.273 467.074 551.669 467.074 548.461V540.312H465.01V538.891L467.225 537.715L468.318 534.516H470.301V537.879H474.607V540.312H470.301V548.406C470.301 549.181 470.492 549.755 470.875 550.129C471.267 550.493 471.777 550.676 472.406 550.676ZM496.934 547.572C496.934 549.35 496.291 550.744 495.006 551.756C493.721 552.768 491.948 553.273 489.688 553.273C487.427 553.273 485.577 552.923 484.137 552.221V549.131C485.048 549.559 486.014 549.896 487.035 550.143C488.065 550.389 489.022 550.512 489.906 550.512C491.201 550.512 492.153 550.266 492.764 549.773C493.383 549.281 493.693 548.62 493.693 547.791C493.693 547.044 493.411 546.41 492.846 545.891C492.281 545.371 491.114 544.756 489.346 544.045C487.523 543.307 486.238 542.464 485.49 541.516C484.743 540.568 484.369 539.428 484.369 538.098C484.369 536.43 484.962 535.117 486.146 534.16C487.331 533.203 488.922 532.725 490.918 532.725C492.832 532.725 494.737 533.144 496.633 533.982L495.594 536.648C493.816 535.901 492.23 535.527 490.836 535.527C489.779 535.527 488.977 535.76 488.43 536.225C487.883 536.68 487.609 537.286 487.609 538.043C487.609 538.562 487.719 539.009 487.938 539.383C488.156 539.747 488.516 540.094 489.018 540.422C489.519 540.75 490.421 541.183 491.725 541.721C493.192 542.331 494.268 542.901 494.951 543.43C495.635 543.958 496.136 544.555 496.455 545.221C496.774 545.886 496.934 546.67 496.934 547.572ZM506.094 550.676C506.878 550.676 507.661 550.553 508.445 550.307V552.727C508.09 552.882 507.63 553.009 507.064 553.109C506.508 553.219 505.93 553.273 505.328 553.273C502.284 553.273 500.762 551.669 500.762 548.461V540.312H498.697V538.891L500.912 537.715L502.006 534.516H503.988V537.879H508.295V540.312H503.988V548.406C503.988 549.181 504.18 549.755 504.562 550.129C504.954 550.493 505.465 550.676 506.094 550.676ZM520.941 553L520.299 550.895H520.189C519.46 551.815 518.727 552.444 517.988 552.781C517.25 553.109 516.302 553.273 515.145 553.273C513.659 553.273 512.497 552.872 511.658 552.07C510.829 551.268 510.414 550.133 510.414 548.666C510.414 547.107 510.993 545.932 512.15 545.139C513.308 544.346 515.072 543.913 517.441 543.84L520.053 543.758V542.951C520.053 541.985 519.825 541.265 519.369 540.791C518.923 540.308 518.225 540.066 517.277 540.066C516.503 540.066 515.76 540.18 515.049 540.408C514.338 540.636 513.654 540.905 512.998 541.215L511.959 538.918C512.779 538.49 513.677 538.166 514.652 537.947C515.628 537.719 516.548 537.605 517.414 537.605C519.337 537.605 520.786 538.025 521.762 538.863C522.746 539.702 523.238 541.019 523.238 542.814V553H520.941ZM516.156 550.812C517.323 550.812 518.257 550.489 518.959 549.842C519.67 549.186 520.025 548.27 520.025 547.094V545.781L518.084 545.863C516.571 545.918 515.468 546.173 514.775 546.629C514.092 547.076 513.75 547.764 513.75 548.693C513.75 549.368 513.951 549.892 514.352 550.266C514.753 550.63 515.354 550.812 516.156 550.812ZM535.393 537.605C536.04 537.605 536.573 537.651 536.992 537.742L536.678 540.736C536.222 540.627 535.748 540.572 535.256 540.572C533.971 540.572 532.927 540.992 532.125 541.83C531.332 542.669 530.936 543.758 530.936 545.098V553H527.723V537.879H530.238L530.662 540.545H530.826C531.327 539.643 531.979 538.927 532.781 538.398C533.592 537.87 534.463 537.605 535.393 537.605ZM545.441 550.676C546.225 550.676 547.009 550.553 547.793 550.307V552.727C547.438 552.882 546.977 553.009 546.412 553.109C545.856 553.219 545.277 553.273 544.676 553.273C541.632 553.273 540.109 551.669 540.109 548.461V540.312H538.045V538.891L540.26 537.715L541.354 534.516H543.336V537.879H547.643V540.312H543.336V548.406C543.336 549.181 543.527 549.755 543.91 550.129C544.302 550.493 544.812 550.676 545.441 550.676ZM557.432 553.273C555.08 553.273 553.239 552.59 551.908 551.223C550.587 549.846 549.926 547.955 549.926 545.549C549.926 543.079 550.541 541.137 551.771 539.725C553.002 538.312 554.693 537.605 556.844 537.605C558.84 537.605 560.417 538.212 561.574 539.424C562.732 540.636 563.311 542.304 563.311 544.428V546.164H553.234C553.28 547.632 553.676 548.762 554.424 549.555C555.171 550.339 556.224 550.73 557.582 550.73C558.475 550.73 559.305 550.648 560.07 550.484C560.845 550.311 561.674 550.029 562.559 549.637V552.248C561.775 552.622 560.982 552.886 560.18 553.041C559.378 553.196 558.462 553.273 557.432 553.273ZM556.844 540.039C555.823 540.039 555.003 540.363 554.383 541.01C553.772 541.657 553.408 542.6 553.289 543.84H560.152C560.134 542.591 559.833 541.648 559.25 541.01C558.667 540.363 557.865 540.039 556.844 540.039ZM572.061 553.273C570.174 553.273 568.702 552.59 567.645 551.223C566.587 549.855 566.059 547.937 566.059 545.467C566.059 542.988 566.592 541.06 567.658 539.684C568.734 538.298 570.219 537.605 572.115 537.605C574.102 537.605 575.615 538.339 576.654 539.807H576.818C576.663 538.722 576.586 537.865 576.586 537.236V531.727H579.812V553H577.297L576.736 551.018H576.586C575.556 552.521 574.048 553.273 572.061 553.273ZM572.922 550.676C574.243 550.676 575.205 550.307 575.807 549.568C576.408 548.821 576.718 547.613 576.736 545.945V545.494C576.736 543.589 576.426 542.236 575.807 541.434C575.187 540.632 574.216 540.23 572.895 540.23C571.764 540.23 570.894 540.691 570.283 541.611C569.673 542.523 569.367 543.826 569.367 545.521C569.367 547.199 569.663 548.479 570.256 549.363C570.848 550.238 571.737 550.676 572.922 550.676Z" fill="white"/>
<g filter="url(#filter2_d_1_4)">
<path d="M95 359.025C95 354.041 99.0408 350 104.025 350L340.975 350C345.959 350 350 354.041 350 359.025V565.975C350 570.959 345.959 575 340.975 575H104.025C99.0408 575 95 570.959 95 565.975V359.025Z" fill="white"/>
</g>
<circle cx="216" cy="438" r="37" fill="#45B871"/>
<path d="M222.337 433.374C222.337 434.712 221.932 435.85 221.121 436.787C220.311 437.725 219.173 438.369 217.708 438.721V438.809C219.437 439.023 220.745 439.551 221.634 440.391C222.522 441.221 222.967 442.344 222.967 443.76C222.967 445.82 222.22 447.427 220.726 448.579C219.231 449.722 217.098 450.293 214.324 450.293C212 450.293 209.939 449.907 208.143 449.136V445.283C208.973 445.703 209.886 446.045 210.882 446.309C211.878 446.572 212.864 446.704 213.841 446.704C215.335 446.704 216.438 446.45 217.151 445.942C217.864 445.435 218.221 444.619 218.221 443.496C218.221 442.49 217.811 441.777 216.99 441.357C216.17 440.938 214.861 440.728 213.064 440.728H211.438V437.256H213.094C214.754 437.256 215.965 437.041 216.727 436.611C217.498 436.172 217.884 435.425 217.884 434.37C217.884 432.749 216.868 431.938 214.837 431.938C214.134 431.938 213.416 432.056 212.684 432.29C211.961 432.524 211.155 432.93 210.267 433.506L208.172 430.386C210.125 428.979 212.454 428.276 215.159 428.276C217.376 428.276 219.124 428.726 220.403 429.624C221.692 430.522 222.337 431.772 222.337 433.374Z" fill="white"/>
<path d="M156.639 503.012H162.572C165.325 503.012 167.312 503.413 168.533 504.215C169.764 505.017 170.379 506.284 170.379 508.016C170.379 509.182 170.078 510.153 169.477 510.928C168.875 511.702 168.009 512.19 166.879 512.391V512.527C168.283 512.792 169.312 513.316 169.969 514.1C170.634 514.874 170.967 515.927 170.967 517.258C170.967 519.053 170.338 520.462 169.08 521.482C167.831 522.494 166.09 523 163.857 523H156.639V503.012ZM159.906 511.27H163.051C164.418 511.27 165.416 511.055 166.045 510.627C166.674 510.189 166.988 509.451 166.988 508.412C166.988 507.473 166.646 506.794 165.963 506.375C165.288 505.956 164.213 505.746 162.736 505.746H159.906V511.27ZM159.906 513.922V520.252H163.379C164.746 520.252 165.776 519.992 166.469 519.473C167.171 518.944 167.521 518.115 167.521 516.984C167.521 515.945 167.166 515.175 166.455 514.674C165.744 514.173 164.664 513.922 163.215 513.922H159.906ZM188.193 515.412C188.193 517.882 187.56 519.81 186.293 521.195C185.026 522.581 183.262 523.273 181.002 523.273C179.589 523.273 178.34 522.954 177.256 522.316C176.171 521.678 175.337 520.762 174.754 519.568C174.171 518.374 173.879 516.989 173.879 515.412C173.879 512.96 174.508 511.046 175.766 509.67C177.023 508.294 178.796 507.605 181.084 507.605C183.271 507.605 185.003 508.312 186.279 509.725C187.555 511.128 188.193 513.024 188.193 515.412ZM177.188 515.412C177.188 518.903 178.477 520.648 181.057 520.648C183.609 520.648 184.885 518.903 184.885 515.412C184.885 511.958 183.6 510.23 181.029 510.23C179.68 510.23 178.701 510.677 178.09 511.57C177.488 512.464 177.188 513.744 177.188 515.412ZM205.311 515.412C205.311 517.882 204.677 519.81 203.41 521.195C202.143 522.581 200.38 523.273 198.119 523.273C196.706 523.273 195.458 522.954 194.373 522.316C193.288 521.678 192.454 520.762 191.871 519.568C191.288 518.374 190.996 516.989 190.996 515.412C190.996 512.96 191.625 511.046 192.883 509.67C194.141 508.294 195.913 507.605 198.201 507.605C200.389 507.605 202.12 508.312 203.396 509.725C204.673 511.128 205.311 513.024 205.311 515.412ZM194.305 515.412C194.305 518.903 195.594 520.648 198.174 520.648C200.726 520.648 202.002 518.903 202.002 515.412C202.002 511.958 200.717 510.23 198.146 510.23C196.798 510.23 195.818 510.677 195.207 511.57C194.605 512.464 194.305 513.744 194.305 515.412ZM212.119 515.016L213.938 512.746L218.504 507.879H222.209L216.125 514.373L222.592 523H218.818L213.965 516.369L212.201 517.818V523H209.016V501.727H212.201V512.104L212.037 515.016H212.119ZM244.18 517.572C244.18 519.35 243.537 520.744 242.252 521.756C240.967 522.768 239.194 523.273 236.934 523.273C234.673 523.273 232.823 522.923 231.383 522.221V519.131C232.294 519.559 233.26 519.896 234.281 520.143C235.311 520.389 236.268 520.512 237.152 520.512C238.447 520.512 239.399 520.266 240.01 519.773C240.63 519.281 240.939 518.62 240.939 517.791C240.939 517.044 240.657 516.41 240.092 515.891C239.527 515.371 238.36 514.756 236.592 514.045C234.769 513.307 233.484 512.464 232.736 511.516C231.989 510.568 231.615 509.428 231.615 508.098C231.615 506.43 232.208 505.117 233.393 504.16C234.577 503.203 236.168 502.725 238.164 502.725C240.078 502.725 241.983 503.144 243.879 503.982L242.84 506.648C241.062 505.901 239.477 505.527 238.082 505.527C237.025 505.527 236.223 505.76 235.676 506.225C235.129 506.68 234.855 507.286 234.855 508.043C234.855 508.562 234.965 509.009 235.184 509.383C235.402 509.747 235.762 510.094 236.264 510.422C236.765 510.75 237.667 511.183 238.971 511.721C240.438 512.331 241.514 512.901 242.197 513.43C242.881 513.958 243.382 514.555 243.701 515.221C244.02 515.886 244.18 516.67 244.18 517.572ZM254.311 523.273C251.959 523.273 250.118 522.59 248.787 521.223C247.465 519.846 246.805 517.955 246.805 515.549C246.805 513.079 247.42 511.137 248.65 509.725C249.881 508.312 251.572 507.605 253.723 507.605C255.719 507.605 257.296 508.212 258.453 509.424C259.611 510.636 260.189 512.304 260.189 514.428V516.164H250.113C250.159 517.632 250.555 518.762 251.303 519.555C252.05 520.339 253.103 520.73 254.461 520.73C255.354 520.73 256.184 520.648 256.949 520.484C257.724 520.311 258.553 520.029 259.438 519.637V522.248C258.654 522.622 257.861 522.886 257.059 523.041C256.257 523.196 255.34 523.273 254.311 523.273ZM253.723 510.039C252.702 510.039 251.882 510.363 251.262 511.01C250.651 511.657 250.286 512.6 250.168 513.84H257.031C257.013 512.591 256.712 511.648 256.129 511.01C255.546 510.363 254.743 510.039 253.723 510.039ZM273.301 523L272.658 520.895H272.549C271.82 521.815 271.086 522.444 270.348 522.781C269.609 523.109 268.661 523.273 267.504 523.273C266.018 523.273 264.856 522.872 264.018 522.07C263.188 521.268 262.773 520.133 262.773 518.666C262.773 517.107 263.352 515.932 264.51 515.139C265.667 514.346 267.431 513.913 269.801 513.84L272.412 513.758V512.951C272.412 511.985 272.184 511.265 271.729 510.791C271.282 510.308 270.585 510.066 269.637 510.066C268.862 510.066 268.119 510.18 267.408 510.408C266.697 510.636 266.014 510.905 265.357 511.215L264.318 508.918C265.139 508.49 266.036 508.166 267.012 507.947C267.987 507.719 268.908 507.605 269.773 507.605C271.697 507.605 273.146 508.025 274.121 508.863C275.105 509.702 275.598 511.019 275.598 512.814V523H273.301ZM268.516 520.812C269.682 520.812 270.617 520.489 271.318 519.842C272.029 519.186 272.385 518.27 272.385 517.094V515.781L270.443 515.863C268.93 515.918 267.827 516.173 267.135 516.629C266.451 517.076 266.109 517.764 266.109 518.693C266.109 519.368 266.31 519.892 266.711 520.266C267.112 520.63 267.714 520.812 268.516 520.812ZM285.715 520.676C286.499 520.676 287.283 520.553 288.066 520.307V522.727C287.711 522.882 287.251 523.009 286.686 523.109C286.13 523.219 285.551 523.273 284.949 523.273C281.905 523.273 280.383 521.669 280.383 518.461V510.312H278.318V508.891L280.533 507.715L281.627 504.516H283.609V507.879H287.916V510.312H283.609V518.406C283.609 519.181 283.801 519.755 284.184 520.129C284.576 520.493 285.086 520.676 285.715 520.676Z" fill="#242323"/>
<g filter="url(#filter3_d_1_4)">
<path d="M380 135C380 129.477 384.477 125 390 125H625C630.523 125 635 129.477 635 135V340C635 345.523 630.523 350 625 350H390C384.477 350 380 345.523 380 340V135Z" fill="#FEFEFE"/>
</g>
<circle cx="501" cy="214" r="37" fill="#45B871"/>
<path d="M508.172 225H493.201V221.851L498.577 216.416C500.169 214.785 501.209 213.657 501.697 213.032C502.186 212.397 502.537 211.812 502.752 211.274C502.967 210.737 503.074 210.181 503.074 209.604C503.074 208.745 502.835 208.105 502.356 207.686C501.888 207.266 501.258 207.056 500.467 207.056C499.637 207.056 498.831 207.246 498.05 207.627C497.269 208.008 496.453 208.55 495.604 209.253L493.143 206.338C494.197 205.439 495.071 204.805 495.765 204.434C496.458 204.062 497.215 203.779 498.035 203.584C498.855 203.379 499.773 203.276 500.789 203.276C502.127 203.276 503.309 203.521 504.334 204.009C505.359 204.497 506.155 205.181 506.722 206.06C507.288 206.938 507.571 207.944 507.571 209.077C507.571 210.063 507.396 210.991 507.044 211.86C506.702 212.72 506.165 213.604 505.433 214.512C504.71 215.42 503.431 216.714 501.595 218.394L498.841 220.986V221.191H508.172V225Z" fill="white"/>
<path d="M423.879 299H420.639V279.012H431.918V281.773H423.879V288.021H431.412V290.797H423.879V299ZM438.412 299H435.199V283.879H438.412V299ZM435.008 279.873C435.008 279.299 435.163 278.857 435.473 278.547C435.792 278.237 436.243 278.082 436.826 278.082C437.391 278.082 437.829 278.237 438.139 278.547C438.458 278.857 438.617 279.299 438.617 279.873C438.617 280.42 438.458 280.853 438.139 281.172C437.829 281.482 437.391 281.637 436.826 281.637C436.243 281.637 435.792 281.482 435.473 281.172C435.163 280.853 435.008 280.42 435.008 279.873ZM456.322 299H453.096V289.703C453.096 288.536 452.859 287.666 452.385 287.092C451.92 286.518 451.177 286.23 450.156 286.23C448.798 286.23 447.805 286.632 447.176 287.434C446.547 288.236 446.232 289.58 446.232 291.467V299H443.02V283.879H445.535L445.986 285.861H446.15C446.606 285.141 447.253 284.585 448.092 284.193C448.93 283.801 449.86 283.605 450.881 283.605C454.508 283.605 456.322 285.451 456.322 289.143V299ZM465.893 299.273C464.006 299.273 462.534 298.59 461.477 297.223C460.419 295.855 459.891 293.937 459.891 291.467C459.891 288.988 460.424 287.06 461.49 285.684C462.566 284.298 464.051 283.605 465.947 283.605C467.934 283.605 469.447 284.339 470.486 285.807H470.65C470.495 284.722 470.418 283.865 470.418 283.236V277.727H473.645V299H471.129L470.568 297.018H470.418C469.388 298.521 467.88 299.273 465.893 299.273ZM466.754 296.676C468.076 296.676 469.037 296.307 469.639 295.568C470.24 294.821 470.55 293.613 470.568 291.945V291.494C470.568 289.589 470.258 288.236 469.639 287.434C469.019 286.632 468.048 286.23 466.727 286.23C465.596 286.23 464.726 286.691 464.115 287.611C463.505 288.523 463.199 289.826 463.199 291.521C463.199 293.199 463.495 294.479 464.088 295.363C464.68 296.238 465.569 296.676 466.754 296.676ZM494.357 281.527C492.48 281.527 491.003 282.193 489.928 283.523C488.852 284.854 488.314 286.691 488.314 289.033C488.314 291.485 488.829 293.34 489.859 294.598C490.898 295.855 492.398 296.484 494.357 296.484C495.205 296.484 496.025 296.402 496.818 296.238C497.611 296.065 498.436 295.846 499.293 295.582V298.385C497.725 298.977 495.948 299.273 493.961 299.273C491.035 299.273 488.788 298.389 487.221 296.621C485.653 294.844 484.869 292.305 484.869 289.006C484.869 286.928 485.247 285.109 486.004 283.551C486.77 281.992 487.872 280.798 489.312 279.969C490.753 279.139 492.443 278.725 494.385 278.725C496.426 278.725 498.313 279.153 500.045 280.01L498.869 282.73C498.195 282.411 497.479 282.133 496.723 281.896C495.975 281.65 495.187 281.527 494.357 281.527ZM516.67 291.412C516.67 293.882 516.036 295.81 514.77 297.195C513.503 298.581 511.739 299.273 509.479 299.273C508.066 299.273 506.817 298.954 505.732 298.316C504.648 297.678 503.814 296.762 503.23 295.568C502.647 294.374 502.355 292.989 502.355 291.412C502.355 288.96 502.984 287.046 504.242 285.67C505.5 284.294 507.273 283.605 509.561 283.605C511.748 283.605 513.48 284.312 514.756 285.725C516.032 287.128 516.67 289.024 516.67 291.412ZM505.664 291.412C505.664 294.903 506.954 296.648 509.533 296.648C512.085 296.648 513.361 294.903 513.361 291.412C513.361 287.958 512.076 286.23 509.506 286.23C508.157 286.23 507.177 286.677 506.566 287.57C505.965 288.464 505.664 289.744 505.664 291.412ZM531.039 299L530.588 297.018H530.424C529.977 297.719 529.339 298.271 528.51 298.672C527.689 299.073 526.751 299.273 525.693 299.273C523.861 299.273 522.494 298.818 521.592 297.906C520.689 296.995 520.238 295.614 520.238 293.764V283.879H523.479V293.203C523.479 294.361 523.715 295.231 524.189 295.814C524.663 296.389 525.406 296.676 526.418 296.676C527.767 296.676 528.756 296.275 529.385 295.473C530.023 294.661 530.342 293.308 530.342 291.412V283.879H533.568V299H531.039ZM545.818 283.605C546.465 283.605 546.999 283.651 547.418 283.742L547.104 286.736C546.648 286.627 546.174 286.572 545.682 286.572C544.396 286.572 543.353 286.992 542.551 287.83C541.758 288.669 541.361 289.758 541.361 291.098V299H538.148V283.879H540.664L541.088 286.545H541.252C541.753 285.643 542.405 284.927 543.207 284.398C544.018 283.87 544.889 283.605 545.818 283.605ZM560.393 294.693C560.393 296.17 559.855 297.305 558.779 298.098C557.704 298.882 556.163 299.273 554.158 299.273C552.144 299.273 550.526 298.968 549.305 298.357V295.582C551.082 296.402 552.736 296.812 554.268 296.812C556.245 296.812 557.234 296.215 557.234 295.021C557.234 294.639 557.125 294.32 556.906 294.064C556.688 293.809 556.327 293.545 555.826 293.271C555.325 292.998 554.628 292.688 553.734 292.342C551.993 291.667 550.813 290.993 550.193 290.318C549.583 289.644 549.277 288.769 549.277 287.693C549.277 286.399 549.797 285.396 550.836 284.686C551.884 283.965 553.306 283.605 555.102 283.605C556.879 283.605 558.561 283.965 560.146 284.686L559.107 287.105C557.476 286.431 556.104 286.094 554.992 286.094C553.297 286.094 552.449 286.577 552.449 287.543C552.449 288.017 552.668 288.418 553.105 288.746C553.552 289.074 554.518 289.525 556.004 290.1C557.253 290.583 558.16 291.025 558.725 291.426C559.29 291.827 559.709 292.292 559.982 292.82C560.256 293.34 560.393 293.964 560.393 294.693ZM570.482 299.273C568.131 299.273 566.29 298.59 564.959 297.223C563.637 295.846 562.977 293.955 562.977 291.549C562.977 289.079 563.592 287.137 564.822 285.725C566.053 284.312 567.743 283.605 569.895 283.605C571.891 283.605 573.467 284.212 574.625 285.424C575.783 286.636 576.361 288.304 576.361 290.428V292.164H566.285C566.331 293.632 566.727 294.762 567.475 295.555C568.222 296.339 569.275 296.73 570.633 296.73C571.526 296.73 572.355 296.648 573.121 296.484C573.896 296.311 574.725 296.029 575.609 295.637V298.248C574.826 298.622 574.033 298.886 573.23 299.041C572.428 299.196 571.512 299.273 570.482 299.273ZM569.895 286.039C568.874 286.039 568.053 286.363 567.434 287.01C566.823 287.657 566.458 288.6 566.34 289.84H573.203C573.185 288.591 572.884 287.648 572.301 287.01C571.717 286.363 570.915 286.039 569.895 286.039ZM590.17 294.693C590.17 296.17 589.632 297.305 588.557 298.098C587.481 298.882 585.941 299.273 583.936 299.273C581.921 299.273 580.303 298.968 579.082 298.357V295.582C580.859 296.402 582.514 296.812 584.045 296.812C586.023 296.812 587.012 296.215 587.012 295.021C587.012 294.639 586.902 294.32 586.684 294.064C586.465 293.809 586.105 293.545 585.604 293.271C585.102 292.998 584.405 292.688 583.512 292.342C581.771 291.667 580.59 290.993 579.971 290.318C579.36 289.644 579.055 288.769 579.055 287.693C579.055 286.399 579.574 285.396 580.613 284.686C581.661 283.965 583.083 283.605 584.879 283.605C586.656 283.605 588.338 283.965 589.924 284.686L588.885 287.105C587.253 286.431 585.882 286.094 584.77 286.094C583.074 286.094 582.227 286.577 582.227 287.543C582.227 288.017 582.445 288.418 582.883 288.746C583.329 289.074 584.296 289.525 585.781 290.1C587.03 290.583 587.937 291.025 588.502 291.426C589.067 291.827 589.486 292.292 589.76 292.82C590.033 293.34 590.17 293.964 590.17 294.693Z" fill="#242323"/>
<defs>
<filter id="filter0_d_1_4" x="0" y="0" width="455" height="425" filterUnits="userSpaceOnUse" color-interpolation-filters="sRGB">
<feFlood flood-opacity="0" result="BackgroundImageFix"/>
<feColorMatrix in="SourceAlpha" type="matrix" values="0 0 0 0 0 0 0 0 0 0 0 0 0 0 0 0 0 0 127 0" result="hardAlpha"/>
<feOffset dx="5" dy="5"/>
<feGaussianBlur stdDeviation="50"/>
<feColorMatrix type="matrix" values="0 0 0 0 0.341176 0 0 0 0 0.345098 0 0 0 0 0.34902 0 0 0 0.1 0"/>
<feBlend mode="normal" in2="BackgroundImageFix" result="effect1_dropShadow_1_4"/>
<feBlend mode="normal" in="SourceGraphic" in2="effect1_dropShadow_1_4" result="shape"/>
</filter>
<filter id="filter1_d_1_4" x="338" y="338" width="355" height="325" filterUnits="userSpaceOnUse" color-interpolation-filters="sRGB">
<feFlood flood-opacity="0" result="BackgroundImageFix"/>
<feColorMatrix in="SourceAlpha" type="matrix" values="0 0 0 0 0 0 0 0 0 0 0 0 0 0 0 0 0 0 127 0" result="hardAlpha"/>
<feOffset dx="8" dy="8"/>
<feGaussianBlur stdDeviation="25"/>
<feColorMatrix type="matrix" values="0 0 0 0 0.0703125 0 0 0 0 0.5625 0 0 0 0 0.258628 0 0 0 0.3 0"/>
<feBlend mode="normal" in2="BackgroundImageFix" result="effect1_dropShadow_1_4"/>
<feBlend mode="normal" in="SourceGraphic" in2="effect1_dropShadow_1_4" result="shape"/>
</filter>
<filter id="filter2_d_1_4" x="15" y="275" width="415" height="385" filterUnits="userSpaceOnUse" color-interpolation-filters="sRGB">
<feFlood flood-opacity="0" result="BackgroundImageFix"/>
<feColorMatrix in="SourceAlpha" type="matrix" values="0 0 0 0 0 0 0 0 0 0 0 0 0 0 0 0 0 0 127 0" result="hardAlpha"/>
<feOffset dy="5"/>
<feGaussianBlur stdDeviation="40"/>
<feColorMatrix type="matrix" values="0 0 0 0 0.341176 0 0 0 0 0.345098 0 0 0 0 0.34902 0 0 0 0.1 0"/>
<feBlend mode="normal" in2="BackgroundImageFix" result="effect1_dropShadow_1_4"/>
<feBlend mode="normal" in="SourceGraphic" in2="effect1_dropShadow_1_4" result="shape"/>
</filter>
<filter id="filter3_d_1_4" x="285" y="30" width="455" height="425" filterUnits="userSpaceOnUse" color-interpolation-filters="sRGB">
<feFlood flood-opacity="0" result="BackgroundImageFix"/>
<feColorMatrix in="SourceAlpha" type="matrix" values="0 0 0 0 0 0 0 0 0 0 0 0 0 0 0 0 0 0 127 0" result="hardAlpha"/>
<feOffset dx="5" dy="5"/>
<feGaussianBlur stdDeviation="50"/>
<feColorMatrix type="matrix" values="0 0 0 0 0.341176 0 0 0 0 0.345098 0 0 0 0 0.34902 0 0 0 0.1 0"/>
<feBlend mode="normal" in2="BackgroundImageFix" result="effect1_dropShadow_1_4"/>
<feBlend mode="normal" in="SourceGraphic" in2="effect1_dropShadow_1_4" result="shape"/>
</filter>
</defs>
</svg>
